<?xml version="1.0" encoding="UTF-8"?><svg id="a" xmlns="http://www.w3.org/2000/svg" width="300" height="300" viewBox="0 0 300 300"><defs><style>.b,.c{stroke-width:0px;}.c{fill:#010101;}</style></defs><path class="b" d="m213.355,113.236c4.789,8.21,7.782,16.809,13.699,23.962.953.933,1.911,2.025,2.929,2.451,1.502.774,3.303.487,4.925.195,6.836-1.888,13.194-7.334,18.426-12.58,8.31-8.742,15.35-18.553,21.816-28.892.188-.302.586-.395.888-.206.269.172.36.489.269.779-2.615,12.327-7.244,24.222-13.601,35.19-23.793,41.781-58.922,27.755-68.51-14.559-2.332-12.089,13.78-17.275,19.159-6.34h0Z"/><path class="b" d="m151.44,92.201c-7.899-6.796-15.123-14.116-24.411-18.807-22.759-12.095-33.511,32.886-35.741,48.75-.114.753-1.26.687-1.289-.085-3.473-19.571-2.247-48.423,13.511-62.886,21.084-18.377,51.071.791,63.684,20.417,6.41,10.508-6.951,21.041-15.755,12.611h0Z"/><path class="c" d="m167.516,169.327c-5.504-5.521-11.053-9.683-17.014-14.122-11.159-8.099-21.849-15.616-34.814-19.964,0,0-2.254-.76-2.254-.76-5.08-1.688-10.899-.235-14.556,4.11-4.79,5.691-5.365,16.144.326,20.935.984.809,5.172,3.259,10.422,6.255-1.106,1.03-2.206,2.064-3.304,3.09-12.483,11.842-23.938,24.872-35.899,37.301-14.955,15.245-31.318,31.549-46.482,46.476-.292.286-.373.741-.167,1.117.255.479.873.624,1.326.342,30.182-16.777,59.333-35.099,88.32-53.787,5.035-3.356,10.409-7.136,15.312-10.719,3.247-2.314,6.451-4.701,9.436-7.312,4.938,3.068,9.943,6.325,14.084,9.941-2.758,2.638-6.103,4.737-9.587,6.929-16.87,10.294-35.37,19.175-52.321,29.565-.918.509-.384,1.898.601,1.764,20.468-3.024,40.569-6.695,60.35-13.35,7.89-2.932,15.849-5.89,21.955-12.626,10.173-11.837,4.026-25.898-5.733-35.183Z"/><circle class="c" cx="206.984" cy="80.541" r="21.5"/></svg>