<?xml version="1.0" encoding="UTF-8"?><svg id="a" xmlns="http://www.w3.org/2000/svg" width="300" height="300" xmlns:xlink="http://www.w3.org/1999/xlink" viewBox="0 0 300 300"><defs><style>.c,.d{fill:none;}.c,.e{stroke-width:0px;}.d{stroke:#000;stroke-linecap:round;stroke-miterlimit:10;stroke-width:7px;}.f{clip-path:url(#b);}</style><clipPath id="b"><rect class="c" x="0" width="300" height="300"/></clipPath></defs><g class="f"><path class="e" d="m255.1,173.3c-5-4.5-18.8-18.1-43.4-30.1-10.2,10.6-25.8,15.1-40.7,10.3L0,97.9v60.7s160.6,52.1,160.6,52.1h0c0,.1,80.5,26.1,80.5,26.1,5.4,1.8,29.8,10.5,40.6-6.5.4-.6,1.9-3.1,2.8-6.5,4.9-19-17.1-39.5-29.3-50.6Z"/><circle class="e" cx="127.9" cy="106.1" r="21.5"/><circle class="e" cx="175.5" cy="121.6" r="21.5"/><circle class="e" cx="32.8" cy="75.2" r="21.5"/><circle class="e" cx="80.4" cy="90.7" r="21.5"/><path class="d" d="m160.9,224.5l92.5,30c7.7,2.5,16,1.8,23.1-1.8h0"/><line class="d" x1="36.1" y1="184" x2="-26.3" y2="163.7"/></g></svg>