<?xml version="1.0" encoding="UTF-8" standalone="no"?>
<!-- Created with Inkscape (http://www.inkscape.org/) -->
<svg
   xmlns:svg="http://www.w3.org/2000/svg"
   xmlns="http://www.w3.org/2000/svg"
   version="1.0"
   width="300"
   height="300"
   viewBox="0 0 300 300"
   id="svg2235">
  <defs
     id="defs2237">
    <clipPath
       id="clip0">
      <rect
         width="300"
         height="300"
         x="0"
         y="0"
         id="rect2240" />
    </clipPath>
  </defs>
  <rect
     width="16.909815"
     height="7.7088861"
     ry="1.3677056"
     x="258.74503"
     y="268.16977"
     style="fill:#000000;fill-opacity:1;stroke:none;stroke-width:1.20000005;stroke-linejoin:round;stroke-miterlimit:4;stroke-dasharray:none;stroke-opacity:1"
     id="rect2258" />
  <path
     d="M 205.09848 46.510658 A 21.100666 21.100666 0 1 1  162.89715,46.510658 A 21.100666 21.100666 0 1 1  205.09848 46.510658 z"
     transform="matrix(1.0333333,0,0,1.0333333,-6.8366163,-0.8469998)"
     style="fill:#000000;fill-opacity:1;stroke:none;stroke-width:1.20000005;stroke-linejoin:round;stroke-miterlimit:4;stroke-dasharray:none;stroke-opacity:1"
     id="path2236" />
  <path
     d="M 38.437531,157.80748 C 40.44342,158.5426 42.436661,159.31216 44.428955,160.08745 C 39.40477,168.44063 32.697296,175.90611 29.324463,185.16386 C 29.371323,187.66113 30.571716,189.92903 31.466278,192.20679 C 30.027588,193.73055 28.582611,195.24876 27.092911,196.72563 C 25.067184,192.33865 21.908417,187.71275 23.610733,182.6472 C 27.053787,173.55418 33.384613,166.00003 38.437531,157.80748 z "
     style="fill:#050505;fill-rule:nonzero;stroke:none"
     id="path2261" />
  <path
     d="M 97.229965,250.09335 C 103.14053,255.44128 108.98479,260.89473 115.41705,265.62407 C 118.84171,267.95332 123.25688,266.44054 127.08287,267.40253 C 128.76594,268.47798 129.71626,270.36705 130.9648,271.88089 C 125.42072,273.08203 119.13769,275.744 113.98962,271.99852 C 106.11777,267.35489 100.12143,260.31303 93.058685,254.62009 C 94.446655,253.10771 95.839523,251.60095 97.229965,250.09335 z "
     style="fill:#050505;fill-rule:nonzero;stroke:none"
     id="path2265" />
  <path
     d="M 96.472229,131.55519 C 96.519348,123.01032 103.94042,115.24127 110.98863,114.67166 C 113.71765,114.45111 115.77646,118.40758 118.15739,120.30043 C 123.23576,118.90735 129.19812,116.7267 133.93988,120.07106 C 142.98053,125.6182 146.09801,136.48123 149.07434,145.95869 C 152.95032,159.96323 158.50114,174.07828 156.72163,188.90424 C 153.1586,202.32834 146.85207,215.18216 137.58135,225.60518 C 128.72267,235.48935 118.76688,244.37878 108.0966,252.26415 C 120.79414,235.67845 133.31041,217.47966 136.42975,196.33943 C 138.78188,180.927 130.55692,166.78537 123.70854,153.70723 C 122.27258,166.98308 120.13783,181.02187 112.06732,192.08644 C 106.4399,198.87732 97.292511,201.25751 88.834473,199.27992 C 71.129639,194.70129 54.342941,185.02748 43.506241,170.01274 C 56.937759,173.94194 69.669342,180.72719 83.979874,181.09212 C 88.085373,181.59839 94.173294,181.78233 95.998352,177.0365 C 99.698608,162.07233 95.562881,146.67831 96.472229,131.55519 z "
     style="fill:#050505;fill-rule:nonzero;stroke:none"
     id="path2257" />
  <path
     d="M 143.15982,59.842316 C 147.23697,58.293794 152.1795,60.157333 153.94807,64.021027 C 158.69653,72.714035 155.717,83.071625 156.74184,92.412079 C 158.92625,106.67844 161.74405,121.56317 170.7849,133.28101 C 164.80234,117.42574 161.44144,99.57402 167.1588,83.136993 C 168.80986,79.772125 170.25124,75.853603 174.97546,75.026672 C 180.82338,74.003048 186.38905,78.910217 185.78502,84.999054 C 184.64975,103.1165 178.94215,122.60414 187.1288,139.84726 C 206.08238,177.40941 223.85761,215.56741 242.99413,253.04186 C 243.65442,254.50354 244.63342,256.17555 246.38362,256.46004 C 253.84241,257.26353 261.79885,256.72457 269.64429,256.6818 C 269.66469,259.48568 269.74785,262.95927 269.7673,265.78592 C 262.897,265.93585 256.01744,266.19087 249.16275,265.69153 C 242.85645,264.21695 238.61765,258.5937 235.92517,253.0556 C 221.0191,223.49225 207.04091,193.47571 192.06662,163.94719 C 190.39638,161.11276 189.15312,157.58478 185.92378,156.17033 C 173.61209,150.15877 162.66199,141.60922 153.5025,131.45741 C 138.9997,114.85484 134.19142,91.921356 135.49544,70.412476 C 136.40479,66.041382 138.6035,61.572831 143.15982,59.842316 z "
     style="fill:#050505;fill-rule:nonzero;stroke:none"
     id="path2253" />
</svg>
