<?xml version="1.0" encoding="utf-8"?>
<!-- Generator: Adobe Illustrator 14.0.0, SVG Export Plug-In . SVG Version: 6.00 Build 43363)  -->
<!DOCTYPE svg PUBLIC "-//W3C//DTD SVG 1.1//EN" "http://www.w3.org/Graphics/SVG/1.1/DTD/svg11.dtd">
<svg version="1.1" id="Layer_1" xmlns="http://www.w3.org/2000/svg" xmlns:xlink="http://www.w3.org/1999/xlink" x="0px" y="0px"
	 width="300px" height="300px" viewBox="0 0 300 300" enable-background="new 0 0 300 300" xml:space="preserve">
<path d="M257.669,218.681c-24.793-22.462-50.063-44.387-75.033-66.665c2.57-5.042,4.617-10.955,2.688-16.573
	c-2.379-10.678-13.709-18.081-24.435-16.443c-3.909,0.407-7.213,2.673-10.797,3.973c-4.363-3.247-8.139-7.204-12.315-10.68
	c-16.636-14.786-33.364-29.472-49.947-44.315c0.746-4.047-0.587-8.014-1.928-11.778c-3.747-9.736-9.494-18.751-17.021-26.001
	c-3.548-3.418-7.895-6.365-12.869-7.058c-8.025,0.52-15.23,6.09-18.561,13.284c-1.744,3.699-1.639,8.137,0.407,11.693
	C45,59.312,56.654,66.759,68.869,71.399c4.765,2.227,10.392,3.425,15.428,1.343c5.315,4.728,10.705,9.373,15.94,14.19
	c-2.986,9.748-2.524,20.071-2.319,30.134c1.652,16.936,6.385,35.34,20.191,46.515c5.637,1.188,12.853,1.242,16.512-4
	c2.434-3.063,1.467-7.467-1.013-10.152c-9.832-6.019-17.003-15.639-21.937-25.915c-3.544-6.948-4.813-14.719-7.138-22.099
	c-1.314-3.905-1.316-8.059-1.391-12.131c14.183,12.837,28.561,25.47,42.942,38.087c-1.819,3.347-3.724,6.777-4.192,10.623
	c-1.134,9.961,5.705,20.178,15.384,22.866c7.35,2.527,15.61,0.321,21.559-4.431c13.778,12.458,27.947,24.492,41.578,37.104
	c-3.424,2.194-7.181,5.15-11.519,4.234c-7.099-1.469-11.377-8.309-13.993-14.533c-2.011-4.746-4.603-10.307-10.071-11.704
	c-3.032-1.414-7.259-0.646-8.625,2.692c-2.933,4.122-0.943,9.385,1.192,13.396c4.619,7.992,10.916,15.645,19.685,19.202
	c4.65,2.246,9.964,2.492,15.012,1.891c5.987-1.268,10.073-6.127,14.604-9.824c7.067,6.166,13.969,12.526,21.127,18.59
	C175.454,207.184,103,197.438,30.596,187.356c-0.209,1.997-0.403,4-0.584,6.006c79.728,10.972,159.431,22.163,239.183,32.934
	c0.207-1.966,0.412-3.931,0.609-5.893C265.765,219.778,261.704,219.321,257.669,218.681z"/>
<path d="M260.924,260.285c-14.468,1.857-27.696,11.839-42.741,8.941c-18.875-4.549-31.891-21.724-51.248-25.08
	c-19.914-3.699-38.872,9.528-58.746,5.082c-11.321-2.443-19.24-11.839-29.973-15.625c-11.541-4.469-24.243-3.512-36.212-1.582
	c-3.653,0.678-7.451,0.96-10.867,2.544c-0.035,1.912-0.087,5.203,2.739,4.823c8.698-0.826,17.314-2.754,26.077-2.979
	c5.807,0.649,11.93,0.788,17.252,3.476c9.251,4.209,16.872,11.463,26.632,14.654c5.525,1.932,11.454,1.804,17.221,1.554
	c13.528-0.736,26.281-6.681,39.91-6.462c11.565,0.633,21.618,6.995,30.84,13.435c7.443,4.887,15.189,9.547,23.79,12.084
	c12.2,2.573,24.248-1.845,35.528-6.046c5.152-1.967,10.558-3.285,16.114-2.848c0.356-1.057,0.704-2.113,1.042-3.172
	C267.612,259.658,263.491,260.291,260.924,260.285z"/>
</svg>
