<?xml version="1.0" standalone="no"?>
<!DOCTYPE svg PUBLIC "-//W3C//DTD SVG 20010904//EN"
 "http://www.w3.org/TR/2001/REC-SVG-20010904/DTD/svg10.dtd">
<svg version="1.0" xmlns="http://www.w3.org/2000/svg"
 width="240.000000pt" height="240.000000pt" viewBox="0 0 240.000000 240.000000"
 preserveAspectRatio="xMidYMid meet">
<metadata>
Created by potrace 1.15, written by Peter Selinger 2001-2017
</metadata>
<g transform="translate(0.000000,240.000000) scale(0.100000,-0.100000)"
fill="#000000" stroke="none">
<path d="M0 2112 c0 -37 5 -42 162 -172 292 -243 300 -251 286 -267 -10 -13
-8 -14 14 -12 16 3 39 -5 58 -19 17 -13 38 -21 46 -18 23 9 28 35 10 55 -15
17 -11 19 86 42 126 29 265 31 381 4 81 -18 147 -16 172 5 27 22 18 79 -15
110 -38 36 -88 45 -235 43 -164 -2 -322 -49 -414 -122 l-38 -30 -251 209
c-139 116 -254 210 -257 210 -3 0 -5 -17 -5 -38z"/>
<path d="M1506 2006 c-84 -31 -126 -87 -126 -169 0 -55 16 -90 57 -129 119
-113 326 -18 311 143 -12 116 -134 194 -242 155z"/>
<path d="M1553 1585 c-24 -10 -35 -24 -44 -54 -10 -35 -9 -47 9 -96 26 -68 89
-163 156 -233 53 -57 162 -133 211 -149 24 -8 29 -15 27 -35 -4 -32 27 -43 58
-21 13 9 36 14 61 11 43 -4 46 -2 24 22 -13 15 2 28 163 146 l177 129 3 43 3
42 -205 -150 c-113 -83 -211 -150 -218 -150 -21 0 -164 148 -208 215 -22 33
-49 84 -60 115 -37 97 -64 144 -95 161 -26 15 -34 16 -62 4z"/>
<path d="M792 1464 c-56 -39 -10 -134 139 -288 113 -118 113 -114 4 -136 -74
-15 -163 -48 -277 -102 -94 -44 -111 -63 -50 -54 20 3 98 8 172 11 177 8 366
39 403 66 16 12 31 18 35 15 12 -13 -19 -28 -116 -56 -108 -32 -332 -127 -332
-141 0 -11 6 -11 235 6 300 22 389 46 406 107 18 69 -40 213 -140 346 -68 89
-126 132 -181 132 -26 0 -40 8 -66 39 -18 21 -49 46 -68 55 -44 21 -134 21
-164 0z"/>
<path d="M2 1154 c3 -36 4 -37 298 -210 162 -96 336 -198 385 -228 985 -582
946 -559 1000 -564 67 -5 115 17 115 54 0 28 7 28 -89 8 -17 -3 -40 0 -57 9
-27 14 -27 14 -6 26 14 7 22 21 22 36 0 28 -16 31 -66 13 -47 -17 -84 0 -356
161 -128 76 -459 271 -735 434 -276 164 -505 297 -508 297 -4 0 -5 -16 -3 -36z"/>
</g>
</svg>
