<?xml version="1.0" encoding="UTF-8"?><svg id="a" xmlns="http://www.w3.org/2000/svg" width="300" height="300" viewBox="0 0 300 300">
<style type="text/css">
	.st0{fill:none;stroke:#000000;stroke-width:6;stroke-miterlimit:10;}
	.st1{fill:#010101;}
</style>
<path class="st0" d="M0,210h85.71v37.79c21.43,0,21.43-12.86,42.86-12.86s21.43,12.86,42.86,12.86s21.43-12.86,42.85-12.86
	s21.43,12.86,42.86,12.86s21.43-12.86,42.85-12.86"/>
<g>
	<path class="st1" d="M62.1,198.95c4.14-4.65,43.23-54.5,48.82-57.19c0.66-0.32-37.19-23.26-41.2-40.48
		c-1.23-5.28,1.54-8.64,7.92-13.41c5.98-4.48,8.5-1.22,22.16,9.28c6.01,4.62,11.17,9.77,16.55,15.58
		c10.6,10.93,23.83,26.85,13.18,40.48c-14.86,15.76-45.14,37.02-66.68,46.73C62.27,200.24,61.63,199.45,62.1,198.95L62.1,198.95
		L62.1,198.95z"/>
	<path class="st1" d="M79.6,24.49c7.47,6.59,24.15,21.35,31.49,27.55c10.22,8.76,21.71,18.4,31.45,27.59
		c6.8,6.28,13.47,12.7,19.81,19.43c9.53,10.96-5.48,25.27-15.98,15.19c-6.54-6.79-12.71-13.91-18.74-21.16
		c-11.91-14.2-23.51-28.61-34.09-43.87c-5.32-7.68-10.41-15.55-14.9-23.98c-0.16-0.3-0.05-0.67,0.25-0.83
		c0.23-0.12,0.51-0.08,0.7,0.08l0,0L79.6,24.49z"/>
	<circle cx="192.97" cy="110.39" r="21.5"/>
</g>
</svg>
